# xmcd CD database file
# Copyright (C) 1997 Ti Kan
# 
# Track frame offsets:
#     150
#     13877
#     26697
#     40260
#     52457
#     70340
#     90842
#     102690
#     114742
#     128552
#     142060
#     160097
# 
# Disc length: 2301 seconds
# 
# Revision: 1
# Processed by: cddbd v1.4b41PL1 Copyright (c) Steve Scherf et al.
# Submitted via: DiscPlay 4.0.3
# 
DISCID=ac08fb0c
DTITLE=Percy Sledge - Golden Hits
DYEAR=1900
DGENRE=
TTITLE0=When A Man Loves A Woman
TTITLE1=Take Time To Know Her
TTITLE2=Warm And Tender Love
TTITLE3=It Tears Me Up
TTITLE4=Try A Little Tenderness
TTITLE5=You Send Me
TTITLE6=The Dock Of The Bay
TTITLE7=Tell It Like It Is
TTITLE8=My Special Prayer
TTITLE9=I've Been Loving You Too Long
TTITLE10=If Loving You Is Wrong I Don't Want To Be Right
TTITLE11=Cover Me
EXTD=
EXTT0=
EXTT1=
EXTT2=
EXTT3=
EXTT4=
EXTT5=
EXTT6=
EXTT7=
EXTT8=
EXTT9=
EXTT10=
EXTT11=
PLAYORDER=
